<svg width="775" height="525" xmlns="http://www.w3.org/2000/svg" xmlns:xlink="http://www.w3.org/1999/xlink" overflow="hidden"><g transform="translate(-172 -36)"><path d="M289.5 186C289.5 168.051 304.499 153.5 323 153.5 341.502 153.5 356.5 168.051 356.5 186 356.5 203.949 341.502 218.5 323 218.5 304.499 218.5 289.5 203.949 289.5 186Z" stroke="#172C51" stroke-width="1.33333" stroke-miterlimit="8" fill="#4472C4" fill-rule="evenodd"/><text fill="#FFFFFF" font-family="Calibri,Calibri_MSFontService,sans-serif" font-weight="400" font-size="19" transform="translate(310.234 192)">x</text><text fill="#FFFFFF" font-family="Calibri,Calibri_MSFontService,sans-serif" font-weight="400" font-size="12" transform="translate(318.4 196)">1,1</text><path d="M289.5 300C289.5 282.051 304.499 267.5 323 267.5 341.502 267.5 356.5 282.051 356.5 300 356.5 317.949 341.502 332.5 323 332.5 304.499 332.5 289.5 317.949 289.5 300Z" stroke="#172C51" stroke-width="1.33333" stroke-miterlimit="8" fill="#4472C4" fill-rule="evenodd"/><text fill="#FFFFFF" font-family="Calibri,Calibri_MSFontService,sans-serif" font-weight="400" font-size="16" transform="translate(308.65 305)">x</text><text fill="#FFFFFF" font-family="Calibri,Calibri_MSFontService,sans-serif" font-weight="400" font-size="11" transform="translate(315.65 308)">1,N1</text><path d="M289.5 414C289.5 396.051 304.499 381.5 323 381.5 341.502 381.5 356.5 396.051 356.5 414 356.5 431.949 341.502 446.5 323 446.5 304.499 446.5 289.5 431.949 289.5 414Z" stroke="#172C51" stroke-width="1.33333" stroke-miterlimit="8" fill="#4472C4" fill-rule="evenodd"/><text fill="#FFFFFF" font-family="Calibri,Calibri_MSFontService,sans-serif" font-weight="400" font-size="19" transform="translate(310.233 419)">x</text><text fill="#FFFFFF" font-family="Calibri,Calibri_MSFontService,sans-serif" font-weight="400" font-size="12" transform="translate(318.4 423)">2,1</text><path d="M289.5 528C289.5 510.051 304.499 495.5 323 495.5 341.502 495.5 356.5 510.051 356.5 528 356.5 545.949 341.502 560.5 323 560.5 304.499 560.5 289.5 545.949 289.5 528Z" stroke="#172C51" stroke-width="1.33333" stroke-miterlimit="8" fill="#4472C4" fill-rule="evenodd"/><text fill="#FFFFFF" font-family="Calibri,Calibri_MSFontService,sans-serif" font-weight="400" font-size="16" transform="translate(308.65 533)">x</text><text fill="#FFFFFF" font-family="Calibri,Calibri_MSFontService,sans-serif" font-weight="400" font-size="11" transform="translate(315.65 536)">2,N1</text><path d="M497.5 186C497.5 168.051 512.499 153.5 531 153.5 549.502 153.5 564.5 168.051 564.5 186 564.5 203.949 549.502 218.5 531 218.5 512.499 218.5 497.5 203.949 497.5 186Z" stroke="#172C51" stroke-width="1.33333" stroke-miterlimit="8" fill="#4472C4" fill-rule="evenodd"/><text fill="#FFFFFF" font-family="Calibri,Calibri_MSFontService,sans-serif" font-weight="400" font-size="19" transform="translate(517.4 192)">h</text><text fill="#FFFFFF" font-family="Calibri,Calibri_MSFontService,sans-serif" font-weight="400" font-size="12" transform="translate(527.234 196)">1,1</text><path d="M497.5 300C497.5 282.051 512.499 267.5 531 267.5 549.502 267.5 564.5 282.051 564.5 300 564.5 317.949 549.502 332.5 531 332.5 512.499 332.5 497.5 317.949 497.5 300Z" stroke="#172C51" stroke-width="1.33333" stroke-miterlimit="8" fill="#4472C4" fill-rule="evenodd"/><text fill="#FFFFFF" font-family="Calibri,Calibri_MSFontService,sans-serif" font-weight="400" font-size="15" transform="translate(516.983 305)">h</text><text fill="#FFFFFF" font-family="Calibri,Calibri_MSFontService,sans-serif" font-weight="400" font-size="10" transform="translate(524.65 308)">1,N2</text><path d="M497.5 414C497.5 396.051 512.499 381.5 531 381.5 549.502 381.5 564.5 396.051 564.5 414 564.5 431.949 549.502 446.5 531 446.5 512.499 446.5 497.5 431.949 497.5 414Z" stroke="#172C51" stroke-width="1.33333" stroke-miterlimit="8" fill="#4472C4" fill-rule="evenodd"/><text fill="#FFFFFF" font-family="Calibri,Calibri_MSFontService,sans-serif" font-weight="400" font-size="19" transform="translate(517.4 419)">h</text><text fill="#FFFFFF" font-family="Calibri,Calibri_MSFontService,sans-serif" font-weight="400" font-size="12" transform="translate(527.234 423)">2,1</text><path d="M497.5 528C497.5 510.051 512.499 495.5 531 495.5 549.502 495.5 564.5 510.051 564.5 528 564.5 545.949 549.502 560.5 531 560.5 512.499 560.5 497.5 545.949 497.5 528Z" stroke="#172C51" stroke-width="1.33333" stroke-miterlimit="8" fill="#4472C4" fill-rule="evenodd"/><text fill="#FFFFFF" font-family="Calibri,Calibri_MSFontService,sans-serif" font-weight="400" font-size="15" transform="translate(516.983 532)">h</text><text fill="#FFFFFF" font-family="Calibri,Calibri_MSFontService,sans-serif" font-weight="400" font-size="10" transform="translate(524.65 535)">2,N2</text><path d="M705.5 300C705.5 282.051 720.499 267.5 739 267.5 757.502 267.5 772.5 282.051 772.5 300 772.5 317.949 757.502 332.5 739 332.5 720.499 332.5 705.5 317.949 705.5 300Z" stroke="#172C51" stroke-width="1.33333" stroke-miterlimit="8" fill="#4472C4" fill-rule="evenodd"/><text fill="#FFFFFF" font-family="Calibri,Calibri_MSFontService,sans-serif" font-weight="400" font-size="19" transform="translate(730.15 306)">d</text><text fill="#FFFFFF" font-family="Calibri,Calibri_MSFontService,sans-serif" font-weight="400" font-size="12" transform="translate(739.983 310)">1</text><path d="M705.5 414.5C705.5 396.827 720.499 382.5 739 382.5 757.502 382.5 772.5 396.827 772.5 414.5 772.5 432.173 757.502 446.5 739 446.5 720.499 446.5 705.5 432.173 705.5 414.5Z" stroke="#172C51" stroke-width="1.33333" stroke-miterlimit="8" fill="#4472C4" fill-rule="evenodd"/><text fill="#FFFFFF" font-family="Calibri,Calibri_MSFontService,sans-serif" font-weight="400" font-size="19" transform="translate(726.15 420)">d</text><text fill="#FFFFFF" font-family="Calibri,Calibri_MSFontService,sans-serif" font-weight="400" font-size="12" transform="translate(735.983 424)">N2</text><path d="M863.5 357C863.5 339.051 878.499 324.5 897 324.5 915.502 324.5 930.5 339.051 930.5 357 930.5 374.949 915.502 389.5 897 389.5 878.499 389.5 863.5 374.949 863.5 357Z" stroke="#172C51" stroke-width="1.33333" stroke-miterlimit="8" fill="#4472C4" fill-rule="evenodd"/><text fill="#FFFFFF" font-family="Calibri,Calibri_MSFontService,sans-serif" font-weight="400" font-size="19" transform="translate(891.863 362)">p</text><path d="M356 185 490.009 185 490.009 187 356 187ZM488.675 182 496.675 186 488.675 190Z" fill="#4472C4"/><path d="M356 299 490.009 299 490.009 301 356 301ZM488.675 296 496.675 300 488.675 304Z" fill="#4472C4"/><path d="M356 413 490.009 413 490.009 415 356 415ZM488.675 410 496.675 414 488.675 418Z" fill="#4472C4"/><path d="M356 526 490.009 526 490.009 528 356 528ZM488.675 523 496.675 527 488.675 531Z" fill="#4472C4"/><path d="M356.63 185.223 492.127 295.102 490.867 296.656 355.37 186.777ZM492.981 291.932 496.675 300.078 487.942 298.146Z" fill="#4472C4"/><path d="M0.629858-0.776711 136.128 109.102 134.868 110.656-0.629858 0.776711ZM136.981 105.932 140.676 114.078 131.942 112.146Z" fill="#4472C4" transform="matrix(1 0 0 -1 356 300.078)"/><path d="M0.629858-0.776711 136.128 109.102 134.868 110.656-0.629858 0.776711ZM136.981 105.932 140.676 114.078 131.942 112.146Z" fill="#4472C4" transform="matrix(1 0 0 -1 356 414.078)"/><path d="M0.629858-0.776711 136.128 109.102 134.868 110.656-0.629858 0.776711ZM136.981 105.932 140.676 114.078 131.942 112.146Z" fill="#4472C4" transform="matrix(1 0 0 -1 356 527.078)"/><path d="M353.63 298.223 489.127 408.102 487.867 409.656 352.37 299.777ZM489.981 404.932 493.675 413.078 484.942 411.146Z" fill="#4472C4"/><path d="M356.63 413.223 492.127 523.102 490.867 524.656 355.37 414.777ZM492.981 519.932 496.675 528.078 487.942 526.146Z" fill="#4472C4"/><path d="M321 226.5C321 225.119 322.119 224 323.5 224 324.881 224 326 225.119 326 226.5 326 227.881 324.881 229 323.5 229 322.119 229 321 227.881 321 226.5Z" fill="#002060" fill-rule="evenodd"/><path d="M321 237.5C321 236.119 322.119 235 323.5 235 324.881 235 326 236.119 326 237.5 326 238.881 324.881 240 323.5 240 322.119 240 321 238.881 321 237.5Z" fill="#002060" fill-rule="evenodd"/><path d="M321 248.5C321 247.119 322.119 246 323.5 246 324.881 246 326 247.119 326 248.5 326 249.881 324.881 251 323.5 251 322.119 251 321 249.881 321 248.5Z" fill="#002060" fill-rule="evenodd"/><path d="M321 259.5C321 258.119 322.119 257 323.5 257 324.881 257 326 258.119 326 259.5 326 260.881 324.881 262 323.5 262 322.119 262 321 260.881 321 259.5Z" fill="#002060" fill-rule="evenodd"/><path d="M528 226.5C528 225.119 529.119 224 530.5 224 531.881 224 533 225.119 533 226.5 533 227.881 531.881 229 530.5 229 529.119 229 528 227.881 528 226.5Z" fill="#002060" fill-rule="evenodd"/><path d="M528 237.5C528 236.119 529.119 235 530.5 235 531.881 235 533 236.119 533 237.5 533 238.881 531.881 240 530.5 240 529.119 240 528 238.881 528 237.5Z" fill="#002060" fill-rule="evenodd"/><path d="M528 248.5C528 247.119 529.119 246 530.5 246 531.881 246 533 247.119 533 248.5 533 249.881 531.881 251 530.5 251 529.119 251 528 249.881 528 248.5Z" fill="#002060" fill-rule="evenodd"/><path d="M528 259.5C528 258.119 529.119 257 530.5 257 531.881 257 533 258.119 533 259.5 533 260.881 531.881 262 530.5 262 529.119 262 528 260.881 528 259.5Z" fill="#002060" fill-rule="evenodd"/><path d="M321 453.5C321 452.119 322.119 451 323.5 451 324.881 451 326 452.119 326 453.5 326 454.881 324.881 456 323.5 456 322.119 456 321 454.881 321 453.5Z" fill="#002060" fill-rule="evenodd"/><path d="M321 464.5C321 463.119 322.119 462 323.5 462 324.881 462 326 463.119 326 464.5 326 465.881 324.881 467 323.5 467 322.119 467 321 465.881 321 464.5Z" fill="#002060" fill-rule="evenodd"/><path d="M321 475.5C321 474.119 322.119 473 323.5 473 324.881 473 326 474.119 326 475.5 326 476.881 324.881 478 323.5 478 322.119 478 321 476.881 321 475.5Z" fill="#002060" fill-rule="evenodd"/><path d="M321 486.5C321 485.119 322.119 484 323.5 484 324.881 484 326 485.119 326 486.5 326 487.881 324.881 489 323.5 489 322.119 489 321 487.881 321 486.5Z" fill="#002060" fill-rule="evenodd"/><path d="M530 453.5C530 452.119 531.119 451 532.5 451 533.881 451 535 452.119 535 453.5 535 454.881 533.881 456 532.5 456 531.119 456 530 454.881 530 453.5Z" fill="#002060" fill-rule="evenodd"/><path d="M530 464.5C530 463.119 531.119 462 532.5 462 533.881 462 535 463.119 535 464.5 535 465.881 533.881 467 532.5 467 531.119 467 530 465.881 530 464.5Z" fill="#002060" fill-rule="evenodd"/><path d="M530 475.5C530 474.119 531.119 473 532.5 473 533.881 473 535 474.119 535 475.5 535 476.881 533.881 478 532.5 478 531.119 478 530 476.881 530 475.5Z" fill="#002060" fill-rule="evenodd"/><path d="M530 486.5C530 485.119 531.119 484 532.5 484 533.881 484 535 485.119 535 486.5 535 487.881 533.881 489 532.5 489 531.119 489 530 487.881 530 486.5Z" fill="#002060" fill-rule="evenodd"/><path d="M735 340.5C735 339.119 736.119 338 737.5 338 738.881 338 740 339.119 740 340.5 740 341.881 738.881 343 737.5 343 736.119 343 735 341.881 735 340.5Z" fill="#002060" fill-rule="evenodd"/><path d="M735 351.5C735 350.119 736.119 349 737.5 349 738.881 349 740 350.119 740 351.5 740 352.881 738.881 354 737.5 354 736.119 354 735 352.881 735 351.5Z" fill="#002060" fill-rule="evenodd"/><path d="M735 362.5C735 361.119 736.119 360 737.5 360 738.881 360 740 361.119 740 362.5 740 363.881 738.881 365 737.5 365 736.119 365 735 363.881 735 362.5Z" fill="#002060" fill-rule="evenodd"/><path d="M735 373.5C735 372.119 736.119 371 737.5 371 738.881 371 740 372.119 740 373.5 740 374.881 738.881 376 737.5 376 736.119 376 735 374.881 735 373.5Z" fill="#002060" fill-rule="evenodd"/><path d="M564.63 183.223 700.127 293.102 698.867 294.656 563.37 184.777ZM700.981 289.932 704.675 298.078 695.942 296.146Z" fill="#4472C4"/><path d="M0.629858-0.776711 136.128 109.102 134.868 110.656-0.629858 0.776711ZM136.981 105.932 140.676 114.078 131.942 112.146Z" fill="#4472C4" transform="matrix(1 0 0 -1 564 526.078)"/><path d="M564.63 301.223 700.127 411.102 698.867 412.656 563.37 302.777ZM700.981 407.932 704.675 416.078 695.942 414.146Z" fill="#4472C4"/><path d="M0.629858-0.776711 136.128 109.102 134.868 110.656-0.629858 0.776711ZM136.981 105.932 140.676 114.078 131.942 112.146Z" fill="#4472C4" transform="matrix(1 0 0 -1 564 413.078)"/><path d="M772.527 299.15 858.081 352.158 857.028 353.858 771.473 300.85ZM858.528 348.906 863.221 356.519 854.314 355.706Z" fill="#4472C4"/><path d="M0.533628-0.845719 86.117 53.1553 85.0497 54.8467-0.533628 0.845719ZM86.5903 49.9066 91.2215 57.5585 82.3213 56.6724Z" fill="#4472C4" transform="matrix(1 0 0 -1 772 413.559)"/><path d="M0 0 541.09 0.415538" stroke="#4472C4" stroke-linejoin="round" stroke-miterlimit="10" stroke-dasharray="4 3" fill="none" fill-rule="evenodd" transform="matrix(1 0 0 -1 173.5 359.916)"/><text font-family="Calibri,Calibri_MSFontService,sans-serif" font-weight="400" font-size="24" transform="translate(297.47 65)">Input</text><text font-family="Calibri,Calibri_MSFontService,sans-serif" font-weight="400" font-size="24" transform="translate(297.47 94)">Layer</text><text font-family="Calibri,Calibri_MSFontService,sans-serif" font-weight="400" font-size="24" transform="translate(494.983 66)">Hidden</text><text font-family="Calibri,Calibri_MSFontService,sans-serif" font-weight="400" font-size="24" transform="translate(504.19 95)">Layer</text><text font-family="Calibri,Calibri_MSFontService,sans-serif" font-weight="400" font-size="24" transform="translate(695.942 66)">Distance</text><text font-family="Calibri,Calibri_MSFontService,sans-serif" font-weight="400" font-size="24" transform="translate(711.615 95)">Layer</text><text font-family="Calibri,Calibri_MSFontService,sans-serif" font-weight="400" font-size="24" transform="translate(861.977 66)">Output</text><text font-family="Calibri,Calibri_MSFontService,sans-serif" font-weight="400" font-size="24" transform="translate(870.85 95)">Layer</text></g></svg>